<?xml version="1.0" encoding="UTF-8" standalone="no"?>
<!-- Created with Inkscape (http://www.inkscape.org/) -->

<svg
   xmlns:dc="http://purl.org/dc/elements/1.1/"
   xmlns:cc="http://creativecommons.org/ns#"
   xmlns:rdf="http://www.w3.org/1999/02/22-rdf-syntax-ns#"
   xmlns:svg="http://www.w3.org/2000/svg"
   xmlns="http://www.w3.org/2000/svg"
   xmlns:sodipodi="http://sodipodi.sourceforge.net/DTD/sodipodi-0.dtd"
   xmlns:inkscape="http://www.inkscape.org/namespaces/inkscape"
   width="318.89764"
   height="63.779526"
   id="svg2"
   version="1.1"
   inkscape:version="0.48.4 r9939"
   sodipodi:docname="businesscard-gbraad-back-logo.svg">
  <defs
     id="defs4" />
  <sodipodi:namedview
     id="base"
     pagecolor="#000000"
     bordercolor="#666666"
     borderopacity="1.0"
     inkscape:pageopacity="1"
     inkscape:pageshadow="2"
     inkscape:zoom="4.4233333"
     inkscape:cx="93.569747"
     inkscape:cy="-12.097564"
     inkscape:document-units="px"
     inkscape:current-layer="layer1"
     showgrid="false"
     units="cm"
     inkscape:window-width="1280"
     inkscape:window-height="800"
     inkscape:window-x="0"
     inkscape:window-y="0"
     inkscape:window-maximized="1" />
  <metadata
     id="metadata7">
    <rdf:RDF>
      <cc:Work
         rdf:about="">
        <dc:format>image/svg+xml</dc:format>
        <dc:type
           rdf:resource="http://purl.org/dc/dcmitype/StillImage" />
        <dc:title></dc:title>
      </cc:Work>
    </rdf:RDF>
  </metadata>
  <g
     inkscape:label="Layer 1"
     inkscape:groupmode="layer"
     id="layer1"
     transform="translate(0,-988.58136)">
    <g
       style="font-size:40px;font-style:normal;font-weight:normal;line-height:125%;letter-spacing:0px;word-spacing:0px;fill:#000000;fill-opacity:1;stroke:none;font-family:Bitstream Vera Sans"
       id="flowRoot3153" />
    <g
       transform="translate(0,861.0223)"
       style="font-size:40px;font-style:normal;font-weight:normal;line-height:125%;letter-spacing:0px;word-spacing:0px;fill:#0f93f9;fill-opacity:0;stroke:none;font-family:Bitstream Vera Sans"
       id="text3167" />
    <g
       style="font-size:40px;font-style:normal;font-weight:normal;line-height:125%;letter-spacing:0px;word-spacing:0px;fill:#0f93f9;fill-opacity:1;stroke:none;font-family:Bitstream Vera Sans"
       id="text3939">
      <path
         d="m 33.032806,1013.8304 c 0.898416,-1.6145 1.972634,-2.8059 3.222657,-3.5742 1.249974,-0.7682 2.721327,-1.1523 4.414062,-1.1523 2.278615,0 4.036426,0.8008 5.273438,2.4023 1.236944,1.5886 1.855433,3.8542 1.855468,6.7969 l 0,13.2031 -3.613281,0 0,-13.0859 c -3.2e-5,-2.0964 -0.371125,-3.6523 -1.113281,-4.668 -0.742218,-1.0156 -1.875029,-1.5234 -3.398438,-1.5234 -1.862004,0 -3.333357,0.6185 -4.414062,1.8555 -1.080751,1.2369 -1.621115,2.9231 -1.621094,5.0585 l 0,12.3633 -3.613281,0 0,-13.0859 c -1.8e-5,-2.1094 -0.371111,-3.6654 -1.113281,-4.668 -0.742204,-1.0156 -1.888036,-1.5234 -3.4375,-1.5234 -1.835949,0 -3.294281,0.625 -4.375,1.875 -1.080737,1.237 -1.621101,2.9167 -1.621094,5.039 l 0,12.3633 -3.613281,0 0,-21.875 3.613281,0 0,3.3985 c 0.820304,-1.3412 1.803376,-2.3307 2.949219,-2.9688 1.145822,-0.638 2.506497,-0.957 4.082031,-0.957 1.588526,0 2.936181,0.4036 4.042969,1.2109 1.119772,0.8073 1.946594,1.9792 2.480468,3.5156"
         style=""
         id="path3091" />
      <path
         d="m 73.696869,1019.6703 0,1.7578 -16.523438,0 c 0.156244,2.474 0.898431,4.362 2.226563,5.6641 1.341136,1.289 3.203114,1.9336 5.585937,1.9336 1.380194,0 2.714828,-0.1693 4.003907,-0.5079 1.302064,-0.3385 2.591125,-0.8463 3.867187,-1.5234 l 0,3.3984 c -1.289083,0.5469 -2.610696,0.9636 -3.964844,1.25 -1.354183,0.2865 -2.727879,0.4297 -4.121093,0.4297 -3.489594,0 -6.256518,-1.0156 -8.300782,-3.0468 -2.031253,-2.0313 -3.046877,-4.7787 -3.046875,-8.2422 -2e-6,-3.5807 0.963539,-6.4193 2.890625,-8.5157 1.940098,-2.1093 4.550772,-3.164 7.832032,-3.164 2.942692,0 5.266909,0.9505 6.972656,2.8515 1.718728,1.8881 2.578102,4.4597 2.578125,7.7149 m -3.59375,-1.0547 c -0.02606,-1.9661 -0.579445,-3.5351 -1.660156,-4.707 -1.067725,-1.1719 -2.486994,-1.7578 -4.257813,-1.7578 -2.005219,0 -3.61329,0.5664 -4.824219,1.6992 -1.197923,1.1328 -1.888027,2.7279 -2.070312,4.7851 l 12.8125,-0.019"
         style=""
         id="path3093" />
      <path
         d="m 90.708588,1021.0179 c -1.5e-5,1.862 0.462224,3.3269 1.386718,4.3946 0.924462,1.0547 2.193992,1.582 3.808594,1.582 1.601541,0 2.85805,-0.5338 3.769531,-1.6016 0.924459,-1.0677 1.386689,-2.526 1.386719,-4.375 -3e-5,-1.8229 -0.46877,-3.2682 -1.40625,-4.3359 -0.937523,-1.0807 -2.200542,-1.6211 -3.789062,-1.6211 -1.57554,0 -2.832049,0.5339 -3.769532,1.6016 -0.924494,1.0677 -1.386733,2.5195 -1.386718,4.3554 m 10.644532,5.8399 c -0.78128,1.0026 -1.679712,1.7448 -2.695314,2.2266 -1.002626,0.4687 -2.174499,0.7031 -3.515625,0.7031 -2.2396,0 -4.062515,-0.8073 -5.46875,-2.4219 -1.393241,-1.6276 -2.089855,-3.7435 -2.089843,-6.3477 -1.2e-5,-2.6041 0.703112,-4.72 2.109375,-6.3476 1.406234,-1.6276 3.222639,-2.4414 5.449218,-2.4414 1.341126,0 2.51951,0.2474 3.535157,0.7422 1.015601,0.4818 1.907522,1.2174 2.675782,2.207 l 0,-2.5586 2.79297,0 0,14.375 c 1.90101,-0.2864 3.38538,-1.1523 4.45312,-2.5976 1.0807,-1.4584 1.62106,-3.3399 1.6211,-5.6446 -4e-5,-1.3932 -0.20837,-2.7018 -0.625,-3.9258 -0.40368,-1.2239 -1.02217,-2.3567 -1.85547,-3.3984 -1.3542,-1.7057 -3.00784,-3.0078 -4.96094,-3.9062 -1.94013,-0.9115 -4.056012,-1.3672 -6.347656,-1.3672 -1.601582,0 -3.138038,0.2148 -4.609375,0.6445 -1.471369,0.4167 -2.832045,1.0417 -4.082031,1.875 -2.044281,1.3281 -3.645842,3.0729 -4.804688,5.2344 -1.145839,2.1484 -1.718755,4.4791 -1.71875,6.9922 -5e-6,2.0703 0.371088,4.0104 1.113281,5.8203 0.755201,1.8099 1.84244,3.4049 3.261719,4.7851 1.367177,1.3542 2.949206,2.3828 4.746094,3.086 1.796859,0.7161 3.71743,1.0742 5.761719,1.0742 1.679665,0 3.326799,-0.2865 4.941407,-0.8594 1.62758,-0.5599 3.11846,-1.3672 4.47266,-2.4219 l 1.75781,2.168 c -1.62764,1.263 -3.40498,2.2266 -5.33203,2.8906 -1.91409,0.6771 -3.860703,1.0156 -5.839847,1.0157 -2.408872,-10e-5 -4.681006,-0.4297 -6.816407,-1.2891 -2.135428,-0.8464 -4.036467,-2.0833 -5.703125,-3.7109 -1.666672,-1.6277 -2.936202,-3.5092 -3.808593,-5.6446 -0.872399,-2.1484 -1.308597,-4.4531 -1.308594,-6.914 -3e-6,-2.3698 0.442705,-4.6289 1.328125,-6.7774 0.885412,-2.1484 2.148431,-4.0364 3.789062,-5.664 1.679678,-1.6537 3.619781,-2.9167 5.820313,-3.7891 2.200505,-0.8854 4.531232,-1.3281 6.992187,-1.3281 2.760394,0 5.318989,0.5664 7.675779,1.6992 2.36976,1.1328 4.35544,2.7409 5.95703,4.8242 0.97653,1.2761 1.71872,2.6628 2.22657,4.1602 0.52079,1.4974 0.78121,3.0468 0.78125,4.6484 -4e-5,3.4245 -1.0352,6.1263 -3.10547,8.1055 -2.07035,1.9791 -4.92842,3.0078 -8.57422,3.0859 l 0,-3.0078"
         style="fill:#ffffff;fill-opacity:1"
         id="path3095" />
      <path
         d="m 133.98984,1020.3148 c -2e-5,-2.6041 -0.54038,-4.6224 -1.6211,-6.0547 -1.06772,-1.4322 -2.57162,-2.1484 -4.51171,-2.1484 -1.9271,0 -3.431,0.7162 -4.51172,2.1484 -1.06772,1.4323 -1.60157,3.4506 -1.60157,6.0547 0,2.5912 0.53385,4.6029 1.60157,6.0352 1.08072,1.4323 2.58462,2.1484 4.51172,2.1484 1.94009,0 3.44399,-0.7161 4.51171,-2.1484 1.08072,-1.4323 1.62108,-3.444 1.6211,-6.0352 m 3.59375,8.4766 c -2e-5,3.7239 -0.82685,6.4909 -2.48047,8.3008 -1.65366,1.8229 -4.18621,2.7343 -7.59766,2.7343 -1.26303,0 -2.45443,-0.098 -3.57422,-0.2929 -1.11979,-0.1823 -2.20703,-0.4688 -3.26171,-0.8594 l 0,-3.4961 c 1.05468,0.5729 2.09634,0.9961 3.125,1.2695 1.02863,0.2735 2.07681,0.4102 3.14453,0.4102 2.35675,0 4.12107,-0.6185 5.29297,-1.8555 1.17185,-1.2239 1.75779,-3.0794 1.75781,-5.5664 l 0,-1.7773 c -0.74221,1.289 -1.69273,2.2526 -2.85156,2.8906 -1.15887,0.638 -2.54559,0.957 -4.16016,0.957 -2.6823,0 -4.84376,-1.0221 -6.48438,-3.0664 -1.64062,-2.0442 -2.46094,-4.7526 -2.46093,-8.125 -1e-5,-3.3854 0.82031,-6.1002 2.46093,-8.1445 1.64062,-2.0443 3.80208,-3.0664 6.48438,-3.0664 1.61457,0 3.00129,0.319 4.16016,0.957 1.15883,0.6381 2.10935,1.6016 2.85156,2.8906 l 0,-3.3203 3.59375,0 0,19.1602"
         style="fill:#ffffff;fill-opacity:1"
         id="path3097" />
      <path
         d="m 160.68906,1020.5883 c -2e-5,-2.6433 -0.5469,-4.7136 -1.64063,-6.211 -1.08074,-1.5104 -2.57163,-2.2656 -4.47265,-2.2656 -1.90106,0 -3.39845,0.7552 -4.49219,2.2656 -1.08074,1.4974 -1.6211,3.5677 -1.6211,6.211 0,2.6432 0.54036,4.72 1.6211,6.2304 1.09374,1.4974 2.59113,2.2461 4.49219,2.2461 1.90102,0 3.39191,-0.7487 4.47265,-2.2461 1.09373,-1.5104 1.64061,-3.5872 1.64063,-6.2304 m -12.22657,-7.6368 c 0.7552,-1.302 1.70572,-2.2656 2.85157,-2.8906 1.15884,-0.638 2.53905,-0.957 4.14062,-0.957 2.65623,0 4.81118,1.0547 6.46485,3.164 1.66664,2.1094 2.49997,4.8829 2.5,8.3204 -3e-5,3.4375 -0.83336,6.2109 -2.5,8.3203 -1.65367,2.1093 -3.80862,3.164 -6.46485,3.164 -1.60157,0 -2.98178,-0.3125 -4.14062,-0.9375 -1.14585,-0.638 -2.09637,-1.608 -2.85157,-2.9101 l 0,3.2812 -3.61328,0 0,-30.3906 3.61328,0 0,11.8359"
         style="fill:#ffffff;fill-opacity:1"
         id="path3099" />
      <path
         d="m 183.05234,1012.9906 c -0.40366,-0.2344 -0.84637,-0.4036 -1.32813,-0.5078 -0.46876,-0.1172 -0.98959,-0.1758 -1.5625,-0.1758 -2.03126,0 -3.59376,0.6641 -4.6875,1.9922 -1.08073,1.3151 -1.6211,3.2096 -1.62109,5.6836 l 0,11.5234 -3.61328,0 0,-21.875 3.61328,0 0,3.3985 c 0.7552,-1.3281 1.73827,-2.3112 2.94922,-2.9493 1.21092,-0.651 2.68228,-0.9765 4.41406,-0.9765 0.24738,0 0.52082,0.019 0.82031,0.059 0.29947,0.026 0.6315,0.072 0.9961,0.1367 l 0.0195,3.6914"
         style="fill:#ffffff;fill-opacity:1"
         id="path3101" />
      <path
         d="m 196.80234,1020.5101 c -2.90366,0 -4.91538,0.3321 -6.03516,0.9961 -1.1198,0.6641 -1.67969,1.7969 -1.67969,3.3985 0,1.276 0.41666,2.2916 1.25,3.0468 0.84635,0.7422 1.99218,1.1133 3.4375,1.1133 1.99218,0 3.58723,-0.7031 4.78516,-2.1094 1.21092,-1.4192 1.81639,-3.3007 1.81641,-5.6445 l 0,-0.8008 -3.57422,0 m 7.16797,-1.4843 0,12.4804 -3.59375,0 0,-3.3203 c -0.82033,1.3281 -1.84247,2.3112 -3.06641,2.9492 -1.22397,0.625 -2.72137,0.9375 -4.49219,0.9375 -2.23959,0 -4.02344,-0.625 -5.35156,-1.875 -1.31511,-1.263 -1.97266,-2.9492 -1.97266,-5.0586 0,-2.4609 0.82031,-4.3164 2.46094,-5.5664 1.65364,-1.25 4.11458,-1.875 7.38281,-1.875 l 5.03907,0 0,-0.3515 c -2e-5,-1.6537 -0.5469,-2.9297 -1.64063,-3.8282 -1.08074,-0.9114 -2.60418,-1.3671 -4.57031,-1.3671 -1.25001,0 -2.46746,0.1497 -3.65234,0.4492 -1.18491,0.2995 -2.32423,0.7487 -3.41797,1.3476 l 0,-3.3203 c 1.3151,-0.5078 2.59114,-0.8854 3.82812,-1.1328 1.23697,-0.2604 2.4414,-0.3906 3.61328,-0.3906 3.16405,0 5.52733,0.8203 7.08985,2.4609 1.56248,1.6407 2.34373,4.1276 2.34375,7.461"
         style="fill:#ffffff;fill-opacity:1"
         id="path3103" />
      <path
         d="m 221.33359,1020.5101 c -2.90366,0 -4.91538,0.3321 -6.03516,0.9961 -1.1198,0.6641 -1.67969,1.7969 -1.67969,3.3985 0,1.276 0.41666,2.2916 1.25,3.0468 0.84635,0.7422 1.99218,1.1133 3.4375,1.1133 1.99218,0 3.58723,-0.7031 4.78516,-2.1094 1.21092,-1.4192 1.81639,-3.3007 1.81641,-5.6445 l 0,-0.8008 -3.57422,0 m 7.16797,-1.4843 0,12.4804 -3.59375,0 0,-3.3203 c -0.82033,1.3281 -1.84247,2.3112 -3.06641,2.9492 -1.22397,0.625 -2.72137,0.9375 -4.49219,0.9375 -2.23959,0 -4.02344,-0.625 -5.35156,-1.875 -1.31511,-1.263 -1.97266,-2.9492 -1.97266,-5.0586 0,-2.4609 0.82031,-4.3164 2.46094,-5.5664 1.65364,-1.25 4.11458,-1.875 7.38281,-1.875 l 5.03907,0 0,-0.3515 c -2e-5,-1.6537 -0.5469,-2.9297 -1.64063,-3.8282 -1.08074,-0.9114 -2.60418,-1.3671 -4.57031,-1.3671 -1.25001,0 -2.46746,0.1497 -3.65234,0.4492 -1.18491,0.2995 -2.32423,0.7487 -3.41797,1.3476 l 0,-3.3203 c 1.3151,-0.5078 2.59114,-0.8854 3.82812,-1.1328 1.23697,-0.2604 2.4414,-0.3906 3.61328,-0.3906 3.16405,0 5.52733,0.8203 7.08985,2.4609 1.56248,1.6407 2.34373,4.1276 2.34375,7.461"
         style="fill:#ffffff;fill-opacity:1"
         id="path3105" />
      <path
         d="m 250.31796,1012.9515 0,-11.8359 3.59375,0 0,30.3906 -3.59375,0 0,-3.2812 c -0.75522,1.3021 -1.71225,2.2721 -2.87109,2.9101 -1.14585,0.625 -2.52606,0.9375 -4.14063,0.9375 -2.64323,0 -4.79818,-1.0547 -6.46484,-3.164 -1.65365,-2.1094 -2.48047,-4.8828 -2.48047,-8.3203 0,-3.4375 0.82682,-6.211 2.48047,-8.3204 1.66666,-2.1093 3.82161,-3.164 6.46484,-3.164 1.61457,0 2.99478,0.319 4.14063,0.957 1.15884,0.625 2.11587,1.5886 2.87109,2.8906 m -12.24609,7.6368 c -1e-5,2.6432 0.54036,4.72 1.62109,6.2304 1.09374,1.4974 2.59114,2.2461 4.49219,2.2461 1.90103,0 3.39842,-0.7487 4.49219,-2.2461 1.09373,-1.5104 1.6406,-3.5872 1.64062,-6.2304 -2e-5,-2.6433 -0.54689,-4.7136 -1.64062,-6.211 -1.09377,-1.5104 -2.59116,-2.2656 -4.49219,-2.2656 -1.90105,0 -3.39845,0.7552 -4.49219,2.2656 -1.08073,1.4974 -1.6211,3.5677 -1.62109,6.211"
         style="fill:#ffffff;fill-opacity:1"
         id="path3107" />
      <path
         d="m 261.82187,1026.5453 4.12109,0 0,4.9609 -4.12109,0 0,-4.9609"
         style="fill:#ff8c00;fill-opacity:1"
         id="path3109" />
      <path
         d="m 292.23203,1018.3031 0,13.2031 -3.59375,0 0,-13.0859 c -2e-5,-2.0703 -0.40367,-3.6198 -1.21094,-4.6484 -0.80731,-1.0287 -2.01825,-1.543 -3.63281,-1.543 -1.94012,0 -3.47007,0.6185 -4.58985,1.8555 -1.1198,1.2369 -1.67969,2.9231 -1.67969,5.0585 l 0,12.3633 -3.61328,0 0,-21.875 3.61328,0 0,3.3985 c 0.85937,-1.3151 1.86848,-2.2982 3.02735,-2.9493 1.17186,-0.651 2.51952,-0.9765 4.04297,-0.9765 2.513,0 4.41404,0.7813 5.70312,2.3437 1.28904,1.5495 1.93357,3.8347 1.9336,6.8555"
         style="fill:#ff8c00;fill-opacity:1"
         id="path3111" />
      <path
         d="m 299.43906,1001.1156 3.59375,0 0,30.3906 -3.59375,0 0,-30.3906"
         style="fill:#ff8c00;fill-opacity:1"
         id="path3113" />
    </g>
    <g
       transform="translate(0,861.0223)"
       style="font-size:40px;font-style:normal;font-weight:normal;line-height:125%;letter-spacing:0px;word-spacing:0px;fill:#000000;fill-opacity:1;stroke:none;font-family:Bitstream Vera Sans"
       id="text4014" />
  </g>
</svg>
